<mxfile host="65bd71144e">
    <diagram id="_ik0H_WWnZdYvmnQPUqH" name="Page-1">
        <mxGraphModel dx="3505" dy="2085" grid="1" gridSize="10" guides="1" tooltips="1" connect="1" arrows="1" fold="1" page="1" pageScale="1" pageWidth="850" pageHeight="1100" math="0" shadow="0">
            <root>
                <mxCell id="0"/>
                <mxCell id="1" parent="0"/>
                <mxCell id="5" style="edgeStyle=none;html=1;entryX=0.5;entryY=0;entryDx=0;entryDy=0;rounded=1;" parent="1" source="2" target="4" edge="1">
                    <mxGeometry relative="1" as="geometry"/>
                </mxCell>
                <mxCell id="11" style="edgeStyle=none;html=1;entryX=0.5;entryY=0;entryDx=0;entryDy=0;rounded=1;" parent="1" source="2" target="8" edge="1">
                    <mxGeometry relative="1" as="geometry"/>
                </mxCell>
                <mxCell id="2" value="&lt;b&gt;&lt;font color=&quot;#000000&quot; style=&quot;font-size: 19px;&quot;&gt;DOSEN&lt;/font&gt;&lt;/b&gt;" style="whiteSpace=wrap;html=1;aspect=fixed;fillColor=#6a00ff;fontColor=#ffffff;strokeColor=#3700CC;rounded=1;" parent="1" vertex="1">
                    <mxGeometry x="-400" y="120" width="80" height="80" as="geometry"/>
                </mxCell>
                <mxCell id="7" style="edgeStyle=none;html=1;rounded=1;" parent="1" source="3" target="6" edge="1">
                    <mxGeometry relative="1" as="geometry"/>
                </mxCell>
                <mxCell id="22" style="edgeStyle=none;html=1;entryX=0;entryY=0.5;entryDx=0;entryDy=0;fontSize=19;rounded=1;" parent="1" source="3" target="21" edge="1">
                    <mxGeometry relative="1" as="geometry"/>
                </mxCell>
                <mxCell id="28" style="edgeStyle=none;html=1;entryX=0.5;entryY=0;entryDx=0;entryDy=0;fontSize=15;rounded=1;" parent="1" source="3" target="27" edge="1">
                    <mxGeometry relative="1" as="geometry"/>
                </mxCell>
                <mxCell id="30" style="edgeStyle=none;html=1;entryX=0.5;entryY=0;entryDx=0;entryDy=0;fontSize=15;rounded=1;" parent="1" source="3" target="26" edge="1">
                    <mxGeometry relative="1" as="geometry"/>
                </mxCell>
                <mxCell id="3" value="&lt;b&gt;&lt;font color=&quot;#000000&quot; style=&quot;font-size: 20px;&quot;&gt;MAHASISWA&lt;/font&gt;&lt;/b&gt;" style="whiteSpace=wrap;html=1;aspect=fixed;fillColor=#a20025;fontColor=#ffffff;strokeColor=#6F0000;rounded=1;" parent="1" vertex="1">
                    <mxGeometry x="400" y="30" width="140" height="140" as="geometry"/>
                </mxCell>
                <mxCell id="4" value="&lt;b&gt;&lt;font style=&quot;font-size: 22px;&quot;&gt;PROFILE&lt;/font&gt;&lt;/b&gt;&lt;br&gt;&lt;br&gt;NAMA&lt;br&gt;&lt;br&gt;NIDN&lt;br&gt;&lt;br&gt;JADWAL MK" style="whiteSpace=wrap;html=1;aspect=fixed;fillColor=#dae8fc;strokeColor=#6c8ebf;rounded=1;" parent="1" vertex="1">
                    <mxGeometry x="-880" y="190" width="220" height="220" as="geometry"/>
                </mxCell>
                <mxCell id="6" value="&lt;b&gt;&lt;font style=&quot;font-size: 22px;&quot;&gt;PROFILE&lt;/font&gt;&lt;/b&gt;&lt;br&gt;&lt;br&gt;NAMA&lt;br&gt;&lt;br&gt;NIM&lt;br&gt;&lt;br&gt;JADWAL MK" style="whiteSpace=wrap;html=1;aspect=fixed;fillColor=#d5e8d4;strokeColor=#82b366;rounded=1;" parent="1" vertex="1">
                    <mxGeometry x="-150" y="160" width="220" height="220" as="geometry"/>
                </mxCell>
                <mxCell id="15" style="edgeStyle=none;html=1;entryX=0.5;entryY=0;entryDx=0;entryDy=0;fillColor=#0050ef;strokeColor=#001DBC;rounded=1;" parent="1" source="8" target="14" edge="1">
                    <mxGeometry relative="1" as="geometry"/>
                </mxCell>
                <mxCell id="16" style="edgeStyle=none;html=1;fillColor=#0050ef;strokeColor=#001DBC;rounded=1;entryX=0.5;entryY=0;entryDx=0;entryDy=0;" parent="1" source="8" target="31" edge="1">
                    <mxGeometry relative="1" as="geometry"/>
                </mxCell>
                <mxCell id="17" style="edgeStyle=none;html=1;entryX=0.5;entryY=0;entryDx=0;entryDy=0;fillColor=#0050ef;strokeColor=#001DBC;rounded=1;" parent="1" source="8" target="12" edge="1">
                    <mxGeometry relative="1" as="geometry"/>
                </mxCell>
                <mxCell id="8" value="&lt;b&gt;&lt;font style=&quot;font-size: 22px;&quot;&gt;TUGAS&lt;/font&gt;&lt;/b&gt;&lt;br&gt;&lt;br&gt;BUAT TUGAS&lt;br&gt;&lt;br&gt;LIHAT TUGAS&lt;br&gt;&lt;br&gt;PENILAIAN" style="whiteSpace=wrap;html=1;aspect=fixed;fillColor=#dae8fc;strokeColor=#6c8ebf;rounded=1;" parent="1" vertex="1">
                    <mxGeometry x="-640" y="400" width="220" height="220" as="geometry"/>
                </mxCell>
                <mxCell id="12" value="&lt;b&gt;&lt;font style=&quot;font-size: 22px;&quot;&gt;PENILAIAN TUGAS&lt;/font&gt;&lt;/b&gt;&lt;br&gt;&lt;br&gt;KASIH NILAI&lt;br&gt;&lt;br&gt;PESAN&lt;br&gt;&lt;br&gt;" style="whiteSpace=wrap;html=1;aspect=fixed;fillColor=#f8cecc;strokeColor=#b85450;rounded=1;" parent="1" vertex="1">
                    <mxGeometry x="-310" y="600" width="220" height="220" as="geometry"/>
                </mxCell>
                <mxCell id="14" value="&lt;b&gt;&lt;font style=&quot;font-size: 22px;&quot;&gt;BUAT TUGAS&lt;/font&gt;&lt;/b&gt;&lt;br&gt;&lt;br&gt;TGL DIBUAT&lt;br&gt;&lt;br&gt;TUGAS (TEXTBOX)&lt;br&gt;&lt;br&gt;DEADLINE" style="whiteSpace=wrap;html=1;aspect=fixed;fillColor=#f8cecc;strokeColor=#b85450;rounded=1;" parent="1" vertex="1">
                    <mxGeometry x="-970" y="600" width="220" height="220" as="geometry"/>
                </mxCell>
                <mxCell id="18" value="&lt;span style=&quot;font-size: 22px;&quot;&gt;&lt;b&gt;LIHAT TUGAS&lt;/b&gt;&lt;/span&gt;&lt;br&gt;&lt;br&gt;&lt;br&gt;TGL DIKIRIM DAN TGL DEADLINE&lt;br&gt;&lt;br&gt;LIHAT/DOWNLOAD TUGAS" style="whiteSpace=wrap;html=1;aspect=fixed;fillColor=#fff2cc;strokeColor=#d6b656;rounded=1;" parent="1" vertex="1">
                    <mxGeometry y="650" width="220" height="220" as="geometry"/>
                </mxCell>
                <mxCell id="19" value="&lt;span style=&quot;font-size: 22px;&quot;&gt;&lt;b&gt;KIRIM TUGAS&lt;/b&gt;&lt;/span&gt;&lt;br&gt;&lt;br&gt;&lt;br&gt;&lt;br&gt;KIRIM TUGAS&lt;br&gt;" style="whiteSpace=wrap;html=1;aspect=fixed;fillColor=#fff2cc;strokeColor=#d6b656;rounded=1;" parent="1" vertex="1">
                    <mxGeometry x="240" y="650" width="220" height="220" as="geometry"/>
                </mxCell>
                <mxCell id="20" value="&lt;span style=&quot;font-size: 22px;&quot;&gt;&lt;b&gt;HASIL TUGAS&lt;/b&gt;&lt;/span&gt;&lt;br&gt;&lt;br&gt;&lt;br&gt;&lt;br&gt;NILAI&lt;br&gt;&lt;br&gt;PESAN" style="whiteSpace=wrap;html=1;aspect=fixed;fillColor=#fff2cc;strokeColor=#d6b656;rounded=1;" parent="1" vertex="1">
                    <mxGeometry x="480" y="650" width="220" height="220" as="geometry"/>
                </mxCell>
                <mxCell id="23" style="edgeStyle=none;html=1;fontSize=19;fillColor=#0050ef;strokeColor=#001DBC;rounded=1;" parent="1" source="21" target="18" edge="1">
                    <mxGeometry relative="1" as="geometry"/>
                </mxCell>
                <mxCell id="24" style="edgeStyle=none;html=1;fontSize=19;fillColor=#0050ef;strokeColor=#001DBC;rounded=1;" parent="1" source="21" target="19" edge="1">
                    <mxGeometry relative="1" as="geometry"/>
                </mxCell>
                <mxCell id="25" style="edgeStyle=none;html=1;entryX=0.442;entryY=-0.005;entryDx=0;entryDy=0;entryPerimeter=0;fontSize=19;fillColor=#0050ef;strokeColor=#001DBC;rounded=1;" parent="1" source="21" target="20" edge="1">
                    <mxGeometry relative="1" as="geometry"/>
                </mxCell>
                <mxCell id="21" value="&lt;span style=&quot;font-size: 22px;&quot;&gt;&lt;b&gt;TUGAS&lt;/b&gt;&lt;/span&gt;&lt;br&gt;&lt;br&gt;&lt;br&gt;&lt;br&gt;LIHAT TUGAS&lt;br&gt;KIRIM TUGAS&lt;br&gt;HASIL" style="whiteSpace=wrap;html=1;aspect=fixed;fillColor=#d5e8d4;strokeColor=#82b366;rounded=1;" parent="1" vertex="1">
                    <mxGeometry x="130" y="260" width="220" height="220" as="geometry"/>
                </mxCell>
                <mxCell id="26" value="&lt;span style=&quot;font-size: 22px;&quot;&gt;&lt;b&gt;DISKUSI&lt;/b&gt;&lt;/span&gt;" style="whiteSpace=wrap;html=1;aspect=fixed;fillColor=#d5e8d4;strokeColor=#82b366;rounded=1;" parent="1" vertex="1">
                    <mxGeometry x="470" y="270" width="220" height="220" as="geometry"/>
                </mxCell>
                <mxCell id="27" value="&lt;span style=&quot;font-size: 22px;&quot;&gt;&lt;b&gt;CHATBOT&lt;/b&gt;&lt;/span&gt;" style="whiteSpace=wrap;html=1;aspect=fixed;fillColor=#d5e8d4;strokeColor=#82b366;rounded=1;" parent="1" vertex="1">
                    <mxGeometry x="790" y="160" width="220" height="220" as="geometry"/>
                </mxCell>
                <mxCell id="31" value="&lt;b&gt;&lt;font style=&quot;font-size: 22px;&quot;&gt;LIHAT TUGAS&lt;/font&gt;&lt;/b&gt;&lt;br&gt;&lt;br&gt;TGL MHS KIRIM TUGAS&lt;br&gt;&lt;br&gt;FILE TUGAS(VIEW TUGAS)&lt;br&gt;&lt;br&gt;TELAT / TIDAK (DALAM BENTUK BOX NOTIF)" style="whiteSpace=wrap;html=1;aspect=fixed;fillColor=#f8cecc;strokeColor=#b85450;rounded=1;" parent="1" vertex="1">
                    <mxGeometry x="-640" y="680" width="220" height="220" as="geometry"/>
                </mxCell>
                <mxCell id="52" style="edgeStyle=none;html=1;fontSize=15;" parent="1" source="38" target="42" edge="1">
                    <mxGeometry relative="1" as="geometry"/>
                </mxCell>
                <mxCell id="53" style="edgeStyle=none;html=1;entryX=0.5;entryY=0;entryDx=0;entryDy=0;fontSize=15;" parent="1" source="38" target="41" edge="1">
                    <mxGeometry relative="1" as="geometry"/>
                </mxCell>
                <mxCell id="38" value="&lt;font style=&quot;font-size: 36px;&quot;&gt;LOGIN&lt;/font&gt;" style="whiteSpace=wrap;html=1;aspect=fixed;fillColor=#d80073;fontColor=#ffffff;strokeColor=#A50040;" parent="1" vertex="1">
                    <mxGeometry x="-130" y="-460" width="150" height="150" as="geometry"/>
                </mxCell>
                <mxCell id="50" style="edgeStyle=none;html=1;entryX=1.032;entryY=0.627;entryDx=0;entryDy=0;entryPerimeter=0;fontSize=15;" parent="1" source="39" target="49" edge="1">
                    <mxGeometry relative="1" as="geometry"/>
                </mxCell>
                <mxCell id="39" value="LOGIN ADMIN" style="whiteSpace=wrap;html=1;aspect=fixed;fontSize=36;fillColor=#008a00;fontColor=#ffffff;strokeColor=#005700;" parent="1" vertex="1">
                    <mxGeometry x="-340" y="-250" width="140" height="140" as="geometry"/>
                </mxCell>
                <mxCell id="47" style="edgeStyle=none;html=1;entryX=0.45;entryY=-0.031;entryDx=0;entryDy=0;entryPerimeter=0;fontSize=15;" parent="1" source="41" target="44" edge="1">
                    <mxGeometry relative="1" as="geometry"/>
                </mxCell>
                <mxCell id="41" value="LOGIN MHS" style="whiteSpace=wrap;html=1;aspect=fixed;fontSize=36;fillColor=#a20025;fontColor=#ffffff;strokeColor=#6F0000;" parent="1" vertex="1">
                    <mxGeometry x="200" y="-260" width="140" height="140" as="geometry"/>
                </mxCell>
                <mxCell id="45" style="edgeStyle=none;html=1;entryX=0.43;entryY=-0.04;entryDx=0;entryDy=0;entryPerimeter=0;fontSize=15;" parent="1" source="42" target="43" edge="1">
                    <mxGeometry relative="1" as="geometry"/>
                </mxCell>
                <mxCell id="42" value="LOGIN DOSEN" style="whiteSpace=wrap;html=1;aspect=fixed;fontSize=36;fillColor=#6a00ff;fontColor=#ffffff;strokeColor=#3700CC;" parent="1" vertex="1">
                    <mxGeometry x="-100" y="-260" width="140" height="140" as="geometry"/>
                </mxCell>
                <mxCell id="46" style="edgeStyle=none;html=1;entryX=1;entryY=0;entryDx=0;entryDy=0;fontSize=15;" parent="1" source="43" target="2" edge="1">
                    <mxGeometry relative="1" as="geometry"/>
                </mxCell>
                <mxCell id="43" value="&lt;font style=&quot;font-size: 15px;&quot;&gt;NIDN&lt;br&gt;PASSWORD&lt;/font&gt;" style="rounded=0;whiteSpace=wrap;html=1;fontSize=36;fillColor=#60a917;fontColor=#ffffff;strokeColor=#2D7600;" parent="1" vertex="1">
                    <mxGeometry x="-100" y="-70" width="160" height="70" as="geometry"/>
                </mxCell>
                <mxCell id="48" style="edgeStyle=none;html=1;entryX=0.5;entryY=0;entryDx=0;entryDy=0;fontSize=15;" parent="1" source="44" target="3" edge="1">
                    <mxGeometry relative="1" as="geometry"/>
                </mxCell>
                <mxCell id="44" value="&lt;font style=&quot;font-size: 15px;&quot;&gt;NIM&lt;br&gt;PASSWORD&lt;/font&gt;" style="rounded=0;whiteSpace=wrap;html=1;fontSize=36;fillColor=#60a917;fontColor=#ffffff;strokeColor=#2D7600;" parent="1" vertex="1">
                    <mxGeometry x="200" y="-70" width="160" height="70" as="geometry"/>
                </mxCell>
                <mxCell id="49" value="ADMIN&amp;nbsp;&lt;br&gt;PANEL" style="whiteSpace=wrap;html=1;aspect=fixed;fontSize=15;" parent="1" vertex="1">
                    <mxGeometry x="-610" y="-330" width="80" height="80" as="geometry"/>
                </mxCell>
            </root>
        </mxGraphModel>
    </diagram>
</mxfile>
